GIL01_fast5_ik
nRows=3
nColumns=375

# SIMM Motion File Header:
name GIL01_fast5_ik
datacolumns 375
datarows 3
otherdata 1
range 0.54167000 0.55833000
endheader
time	pelvis_tx	pelvis_ty	pelvis_tz	pelvis_tilt	pelvis_list	pelvis_rotation	hip_flexion_r	hip_adduction_r	hip_rotation_r	knee_angle_r	ankle_angle_r	hip_flexion_l	hip_adduction_l	hip_rotation_l	knee_angle_l	ankle_angle_l	lumbar_extension	lumbar_bending	lumbar_rotation	subtalar_angle_r	mtp_angle_r	subtalar_angle_l	mtp_angle_l	asis_r_px	asis_r_py	asis_r_pz	asis_l_px	asis_l_py	asis_l_pz	midasis_px	midasis_py	midasis_pz	psis_r_px	psis_r_py	psis_r_pz	psis_l_px	psis_l_py	psis_l_pz	hip_r_px	hip_r_py	hip_r_pz	hip_l_px	hip_l_py	hip_l_pz	midhip_px	midhip_py	midhip_pz	epicondLat_r_px	epicondLat_r_py	epicondLat_r_pz	epicondMed_r_px	epicondMed_r_py	epicondMed_r_pz	thighwand_r_px	thighwand_r_py	thighwand_r_pz	upperleg1_r_px	upperleg1_r_py	upperleg1_r_pz	upperleg2_r_px	upperleg2_r_py	upperleg2_r_pz	malleolusLat_r_px	malleolusLat_r_py	malleolusLat_r_pz	malleolusMedv_r_px	malleolusMedv_r_py	malleolusMedv_r_pz	shankwand_r_px	shankwand_r_py	shankwand_r_pz	lowerleg1_r_px	lowerleg1_r_py	lowerleg1_r_pz	knee_r_px	knee_r_py	knee_r_pz	ankle_r_px	ankle_r_py	ankle_r_pz	toe_r_px	toe_r_py	toe_r_pz	epicondLat_l_px	epicondLat_l_py	epicondLat_l_pz	epicondMed_l_px	epicondMed_l_py	epicondMed_l_pz	thighwand_l_px	thighwand_l_py	thighwand_l_pz	upperleg1_l_px	upperleg1_l_py	upperleg1_l_pz	upperleg2_l_px	upperleg2_l_py	upperleg2_l_pz	malleolusLat_l_px	malleolusLat_l_py	malleolusLat_l_pz	malleolusMedv_l_px	malleolusMedv_l_py	malleolusMedv_l_pz	shankwand_l_px	shankwand_l_py	shankwand_l_pz	lowerleg1_l_px	lowerleg1_l_py	lowerleg1_l_pz	knee_l_px	knee_l_py	knee_l_pz	ankle_l_px	ankle_l_py	ankle_l_pz	toe_l_px	toe_l_py	toe_l_pz	subclavicle_r_px	subclavicle_r_py	subclavicle_r_pz	subclavicle_l_px	subclavicle_l_py	subclavicle_l_pz	neck_px	neck_py	neck_pz	sternalnotch_px	sternalnotch_py	sternalnotch_pz	xyphoidprocess_px	xyphoidprocess_py	xyphoidprocess_pz	midhip_tx	midhip_ty	midhip_tz	hip_r_tx	hip_r_ty	hip_r_tz	hip_l_tx	hip_l_ty	hip_l_tz	knee_r_tx	knee_r_ty	knee_r_tz	knee_l_tx	knee_l_ty	knee_l_tz	ankle_r_tx	ankle_r_ty	ankle_r_tz	ankle_l_tx	ankle_l_ty	ankle_l_tz	midasis_tx	midasis_ty	midasis_tz	asis_r_tx	asis_r_ty	asis_r_tz	asis_l_tx	asis_l_ty	asis_l_tz	psis_r_tx	psis_r_ty	psis_r_tz	psis_l_tx	psis_l_ty	psis_l_tz	epicondLat_r_tx	epicondLat_r_ty	epicondLat_r_tz	epicondLat_l_tx	epicondLat_l_ty	epicondLat_l_tz	epicondMed_r_tx	epicondMed_r_ty	epicondMed_r_tz	epicondMed_l_tx	epicondMed_l_ty	epicondMed_l_tz	malleolusLat_r_tx	malleolusLat_r_ty	malleolusLat_r_tz	malleolusLat_l_tx	malleolusLat_l_ty	malleolusLat_l_tz	malleolusMedv_r_tx	malleolusMedv_r_ty	malleolusMedv_r_tz	malleolusMedv_l_tx	malleolusMedv_l_ty	malleolusMedv_l_tz	neck_tx	neck_ty	neck_tz	subclavicle_r_tx	subclavicle_r_ty	subclavicle_r_tz	subclavicle_l_tx	subclavicle_l_ty	subclavicle_l_tz	sternalnotch_tx	sternalnotch_ty	sternalnotch_tz	xyphoidprocess_tx	xyphoidprocess_ty	xyphoidprocess_tz	thighwand_r_tx	thighwand_r_ty	thighwand_r_tz	thighwand_l_tx	thighwand_l_ty	thighwand_l_tz	upperleg1_r_tx	upperleg1_r_ty	upperleg1_r_tz	upperleg1_l_tx	upperleg1_l_ty	upperleg1_l_tz	upperleg2_r_tx	upperleg2_r_ty	upperleg2_r_tz	upperleg2_l_tx	upperleg2_l_ty	upperleg2_l_tz	shankwand_r_tx	shankwand_r_ty	shankwand_r_tz	shankwand_l_tx	shankwand_l_ty	shankwand_l_tz	lowerleg1_r_tx	lowerleg1_r_ty	lowerleg1_r_tz	lowerleg1_l_tx	lowerleg1_l_ty	lowerleg1_l_tz	toe_r_tx	toe_r_ty	toe_r_tz	toe_l_tx	toe_l_ty	toe_l_tz	ground_force_vx	ground_force_vy	ground_force_vz	ground_force_px	ground_force_py	ground_force_pz	ground_force_vx	ground_force_vy	ground_force_vz	ground_force_px	ground_force_py	ground_force_pz	ground_torque_x	ground_torque_y	ground_torque_z	ground_torque_x	ground_torque_y	ground_torque_z	ground_marker_px	ground_marker_py	ground_marker_pz	ground_marker_px	ground_marker_py	ground_marker_pz	ground_marker_px	ground_marker_py	ground_marker_pz	ground_marker_px	ground_marker_py	ground_marker_pz	ground_marker_px	ground_marker_py	ground_marker_pz	ground_marker_px	ground_marker_py	ground_marker_pz	ground_marker_px	ground_marker_py	ground_marker_pz	ground_marker_px	ground_marker_py	ground_marker_pz	ground_marker_px	ground_marker_py	ground_marker_pz	ground_marker_px	ground_marker_py	ground_marker_pz	ground_marker_px	ground_marker_py	ground_marker_pz	ground_marker_px	ground_marker_py	ground_marker_pz	ground_marker_px	ground_marker_py	ground_marker_pz	ground_marker_px	ground_marker_py	ground_marker_pz	ground_marker_px	ground_marker_py	ground_marker_pz	ground_marker_px	ground_marker_py	ground_marker_pz	ground_marker_px	ground_marker_py	ground_marker_pz	ground_marker_px	ground_marker_py	ground_marker_pz	ground_marker_px	ground_marker_py	ground_marker_pz	ground_marker_px	ground_marker_py	ground_marker_pz	ground_marker_px	ground_marker_py	ground_marker_pz	ground_marker_px	ground_marker_py	ground_marker_pz	ground_marker_px	ground_marker_py	ground_marker_pz	ground_marker_px	ground_marker_py	ground_marker_pz	ground_marker_px	ground_marker_py	ground_marker_pz	ground_marker_px	ground_marker_py	ground_marker_pz	ground_marker_px	ground_marker_py	ground_marker_pz	ground_marker_px	ground_marker_py	ground_marker_pz	ground_marker_px	ground_marker_py	ground_marker_pz	ground_marker_px	ground_marker_py	ground_marker_pz	ground_marker_px	ground_marker_py	ground_marker_pz	ground_marker_px	ground_marker_py	ground_marker_pz	ground_marker_px	ground_marker_py	ground_marker_pz	ground_marker_px	ground_marker_py	ground_marker_pz	ground_marker_px	ground_marker_py	ground_marker_pz	ground_marker_px	ground_marker_py	ground_marker_pz	ground_marker_px	ground_marker_py	ground_marker_pz
      0.54167000	      1.13551543	      0.75967447	     -0.21027315	     -6.68597635	      4.30240147	     -3.78524705	    -16.49726694	     -0.42952965	     -4.42682708	    -13.66354261	     -2.95635815	     32.86942454	      4.44210615	      0.25707802	    -12.87991652	    -10.32198009	      5.37400379	     -8.38178304	      8.03306220	      0.00000000	      0.00000000	      0.00000000	      0.00000000	      1.14739323	      0.75171607	     -0.10631394	      1.17998975	      0.75922925	     -0.31318992	      1.14686654	      0.75828668	     -0.20951869	      1.01047541	      0.81667738	     -0.19790391	      1.01519273	      0.81852676	     -0.25281711	      1.06683264	      0.70853574	     -0.15013017	      1.07698773	      0.71764887	     -0.28615482	      1.07191019	      0.71309230	     -0.21814249	      0.88668225	      0.40015160	     -0.12371639	      0.90822687	      0.40284359	     -0.22870996	      1.02859872	      0.45547978	     -0.05160099	      0.99649512	      0.54018023	     -0.08735093	      0.95580080	      0.46550287	     -0.11085897	      0.70535522	      0.11834990	     -0.17149476	      0.72507499	      0.11320976	     -0.22815479	      0.73597755	      0.22214090	     -0.08951821	      0.73504134	      0.19001266	     -0.16568142	      0.93303465	      0.40190224	     -0.17828767	      0.72451024	      0.12398739	     -0.21632024	      0.76805955	      0.02515324	     -0.17497010	      1.19782776	      0.40087693	     -0.32636639	      1.18515973	      0.34683658	     -0.19740552	      1.30240239	      0.57388475	     -0.27926188	      1.21891805	      0.60553329	     -0.31734375	      1.21320109	      0.46907064	     -0.27998779	      1.29198798	      0.06504963	     -0.30807482	      1.30229943	      0.06624150	     -0.25306930	      1.26887171	      0.18792659	     -0.38265292	      1.26391631	      0.14536499	     -0.31032176	      1.22040685	      0.41460500	     -0.26963151	      1.29824302	      0.07398330	     -0.26046878	      1.40509926	      0.04283715	     -0.28859656	      1.12277077	      1.12981724	     -0.19296218	      1.11843197	      1.13456610	     -0.26790109	      1.01223593	      1.17512393	     -0.23524839	      1.10649094	      1.12961990	     -0.23117558	      1.14375073	      1.05115302	     -0.23591566	      1.08271200	      0.71036500	     -0.22468200	      1.06244700	      0.70355000	     -0.15957000	      1.07440800	      0.71091200	     -0.28912600	      0.93079700	      0.39483800	     -0.18943200	      1.21571900	      0.41806500	     -0.26770600	      0.71916200	      0.11661300	     -0.20430300	      1.29641200	      0.07142500	     -0.25921600	      1.14381100	      0.76967800	     -0.21383900	      1.13462700	      0.76402500	     -0.11437000	      1.15299400	      0.77533100	     -0.31330800	      0.98767200	      0.82301400	     -0.19672000	      0.98928900	      0.82277300	     -0.25158000	      0.92181100	      0.39342300	     -0.13518900	      1.22276900	      0.41751500	     -0.32174500	      0.95202200	      0.39647200	     -0.23584000	      1.20724000	      0.38439800	     -0.22787600	      0.70803400	      0.12319700	     -0.16910300	      1.29724000	      0.07071200	     -0.29620000	      0.72358600	      0.12247500	     -0.22926700	      1.29820300	      0.06957400	     -0.22954600	      1.01190900	      1.18240900	     -0.23483100	      1.12080000	      1.12775300	     -0.19313000	      1.12352400	      1.13022900	     -0.27065800	      1.10756400	      1.12726200	     -0.23385900	      1.13872100	      1.04609900	     -0.23294900	      1.05781900	      0.47092500	     -0.05764200	      1.29410500	      0.58341900	     -0.26577700	      1.01150500	      0.54975400	     -0.09611800	      1.21381700	      0.60565400	     -0.31665400	      0.98539100	      0.46887300	     -0.11864600	      1.23800400	      0.52205900	     -0.30875000	      0.75534800	      0.22590100	     -0.08924000	      1.30066900	      0.19518500	     -0.36932200	      0.74515500	      0.19386000	     -0.16615300	      1.28208600	      0.15236200	     -0.29877900	      0.77302800	      0.03648300	     -0.19352100	      1.40229000	      0.04543600	     -0.26262400	     82.39957161	    212.02080491	      8.36210746	      0.78166235	      0.00000000	     -0.20254105	    -52.01851944	    307.14736276	     -2.88655239	      1.27979309	      0.00000000	     -0.26552673	      0.00000000	      0.40328369	      0.00000000	      0.00000000	      0.01853952	      0.00000000	      1.08271194	      0.71036541	     -0.22468159	      1.06244683	      0.70354980	     -0.15956955	      1.07440841	      0.71091235	     -0.28912586	      0.93079686	      0.39483789	     -0.18943195	      1.21571887	      0.41806540	     -0.26770595	      0.71916246	      0.11661349	     -0.20430280	      1.29641151	      0.07142506	     -0.25921613	      1.14381063	      0.76967818	     -0.21383893	      1.13462687	      0.76402545	     -0.11436997	      1.15299439	      0.77533090	     -0.31330791	      0.98767197	      0.82301378	     -0.19672006	      0.98928881	      0.82277292	     -0.25158012	      0.92181098	      0.39342290	     -0.13518943	      1.22276890	      0.41751468	     -0.32174522	      0.95202160	      0.39647183	     -0.23583952	      1.20724022	      0.38439783	     -0.22787602	      0.70803356	      0.12319743	     -0.16910268	      1.29724002	      0.07071213	     -0.29619998	      0.72358561	      0.12247501	     -0.22926714	      1.29820347	      0.06957378	     -0.22954626	      1.01190937	      1.18240917	     -0.23483053	      1.12079966	      1.12775266	     -0.19313009	      1.12352359	      1.13022912	     -0.27065828	      1.10756433	      1.12726247	     -0.23385884	      1.13872087	      1.04609883	     -0.23294903	      1.05781925	      0.47092527	     -0.05764159	      1.29410517	      0.58341873	     -0.26577678	      1.01150525	      0.54975384	     -0.09611794	      1.21381652	      0.60565400	     -0.31665438	      0.98539084	      0.46887296	     -0.11864628	      1.23800445	      0.52205896	     -0.30874985	      0.75534767	      0.22590078	     -0.08924037	      1.30066895	      0.19518486	     -0.36932176	      0.74515510	      0.19385985	     -0.16615279	      1.28208578	      0.15236241	     -0.29877910	      0.77302837	      0.03648303	     -0.19352145	      1.40229046	      0.04543588	     -0.26262379
      0.55000000	      1.14855798	      0.76075964	     -0.21115567	     -6.41697544	      4.64198748	     -3.22118184	    -16.27593923	     -0.99348565	     -4.68545322	    -15.61098773	     -6.56717915	     32.69983410	      5.29927232	      1.53201530	    -15.01971364	     -9.37662074	      5.23859953	     -8.96871941	      8.00483148	      0.00000000	      0.00000000	      0.00000000	      0.00000000	      1.16142367	      0.75214087	     -0.10736682	      1.19209636	      0.76127746	     -0.31447153	      1.15992285	      0.75942901	     -0.21051381	      1.02332788	      0.81698693	     -0.19725411	      1.02753555	      0.81924562	     -0.25219341	      1.08070366	      0.70882560	     -0.15075435	      1.08957176	      0.71894402	     -0.28679793	      1.08513771	      0.71388481	     -0.21877614	      0.90344511	      0.39901962	     -0.12156036	      0.92407110	      0.40146580	     -0.22674425	      1.04548902	      0.45585721	     -0.05088406	      1.01235453	      0.54013215	     -0.08669893	      0.97210568	      0.46501304	     -0.10955744	      0.71493649	      0.12289325	     -0.16769544	      0.73398446	      0.11730201	     -0.22454226	      0.74892468	      0.22582430	     -0.08596137	      0.74646317	      0.19378533	     -0.16212816	      0.94957720	      0.40065597	     -0.17650475	      0.73380199	      0.12808175	     -0.21269758	      0.76945788	      0.02506564	     -0.17408536	      1.21181852	      0.40258688	     -0.32601064	      1.19705091	      0.34806794	     -0.19747526	      1.31516496	      0.57566365	     -0.27650970	      1.23227764	      0.60725735	     -0.31591815	      1.22623156	      0.47065251	     -0.27913815	      1.29386258	      0.06464845	     -0.30889971	      1.30325211	      0.06505764	     -0.25371798	      1.27632537	      0.18882570	     -0.38284198	      1.26863953	      0.14590836	     -0.31096103	      1.23380361	      0.41618084	     -0.26879233	      1.29959608	      0.07299274	     -0.26112136	      1.40624271	      0.04005428	     -0.28797401	      1.13483192	      1.13069779	     -0.19408999	      1.12980583	      1.13520588	     -0.26900082	      1.02380877	      1.17560448	     -0.23551485	      1.11820870	      1.13034336	     -0.23215413	      1.15561781	      1.05195347	     -0.23699102	      1.09540400	      0.71058200	     -0.22479900	      1.07668600	      0.70368800	     -0.16058800	      1.08758500	      0.71223500	     -0.29016600	      0.94752300	      0.39395800	     -0.18845100	      1.22933900	      0.41954300	     -0.26781200	      0.72874300	      0.12109500	     -0.20159100	      1.29750000	      0.07059700	     -0.25899800	      1.15724900	      0.77074100	     -0.21491800	      1.14889800	      0.76419200	     -0.11563200	      1.16560000	      0.77729000	     -0.31420400	      1.00068200	      0.82322200	     -0.19572500	      1.00192500	      0.82319700	     -0.25063000	      0.93896100	      0.39264300	     -0.13413700	      1.23738200	      0.41932100	     -0.32171500	      0.96950100	      0.39322300	     -0.23372400	      1.22093000	      0.38718000	     -0.22644200	      0.71737700	      0.12852400	     -0.16663500	      1.29951500	      0.07005800	     -0.29593900	      0.73384300	      0.12721400	     -0.22631800	      1.30057600	      0.06893700	     -0.22932300	      1.02397000	      1.18291700	     -0.23528800	      1.13288900	      1.12854400	     -0.19402400	      1.13436800	      1.13118900	     -0.27143800	      1.11900300	      1.12812800	     -0.23446600	      1.15025000	      1.04699400	     -0.23423500	      1.07502700	      0.47091300	     -0.05740500	      1.30703200	      0.58592100	     -0.26353900	      1.02749900	      0.54903400	     -0.09638700	      1.22807300	      0.60843100	     -0.31511800	      1.00255100	      0.46774200	     -0.11764800	      1.25241200	      0.52497600	     -0.30685700	      0.76684200	      0.23179200	     -0.08762400	      1.30992700	      0.19423400	     -0.36851600	      0.75653100	      0.19900400	     -0.16410800	      1.28710000	      0.15205700	     -0.29902600	      0.77573800	      0.03665400	     -0.19316500	      1.40385900	      0.04237000	     -0.26250700	     66.31182091	    151.26493720	      9.33667668	      0.78311523	      0.00000000	     -0.20230200	    -61.62181041	    336.22268646	      4.72862086	      1.28777234	      0.00000000	     -0.26600244	      0.00000000	      0.27916272	      0.00000000	      0.00000000	     -0.13123322	      0.00000000	      1.09540415	      0.71058232	     -0.22479887	      1.07668579	      0.70368814	     -0.16058820	      1.08758485	      0.71223491	     -0.29016560	      0.94752264	      0.39395821	     -0.18845053	      1.22933888	      0.41954255	     -0.26781192	      0.72874260	      0.12109485	     -0.20159075	      1.29749978	      0.07059740	     -0.25899830	      1.15724874	      0.77074111	     -0.21491808	      1.14889753	      0.76419228	     -0.11563230	      1.16559982	      0.77728987	     -0.31420386	      1.00068212	      0.82322174	     -0.19572543	      1.00192523	      0.82319725	     -0.25063008	      0.93896061	      0.39264286	     -0.13413697	      1.23738229	      0.41932136	     -0.32171467	      0.96950054	      0.39322335	     -0.23372397	      1.22092962	      0.38718012	     -0.22644244	      0.71737695	      0.12852441	     -0.16663544	      1.29951453	      0.07005791	     -0.29593945	      0.73384261	      0.12721431	     -0.22631761	      1.30057585	      0.06893678	     -0.22932273	      1.02397001	      1.18291724	     -0.23528756	      1.13288879	      1.12854373	     -0.19402422	      1.13436842	      1.13118935	     -0.27143803	      1.11900342	      1.12812769	     -0.23446614	      1.15024960	      1.04699385	     -0.23423485	      1.07502687	      0.47091272	     -0.05740529	      1.30703247	      0.58592081	     -0.26353911	      1.02749872	      0.54903442	     -0.09638746	      1.22807348	      0.60843062	     -0.31511825	      1.00255132	      0.46774223	     -0.11764789	      1.25241244	      0.52497607	     -0.30685660	      0.76684237	      0.23179248	     -0.08762429	      1.30992723	      0.19423373	     -0.36851636	      0.75653142	      0.19900359	     -0.16410792	      1.28710043	      0.15205714	     -0.29902619	      0.77573770	      0.03665430	     -0.19316527	      1.40385854	      0.04237039	     -0.26250684
      0.55833000	      1.16156622	      0.76217847	     -0.21210850	     -6.08923550	      4.98397668	     -2.70717457	    -15.87274379	     -1.62263691	     -4.94821838	    -17.79926689	    -10.73645193	     32.28791396	      6.15832165	      2.80694487	    -16.86976049	     -8.16201691	      5.04680718	     -9.52352093	      7.99429550	      0.00000000	      0.00000000	      0.00000000	      0.00000000	      1.17534387	      0.75292963	     -0.10849108	      1.20424566	      0.76369014	     -0.31577241	      1.17294434	      0.76091736	     -0.21156925	      1.03609547	      0.81749346	     -0.19678930	      1.03983464	      0.82015739	     -0.25174433	      1.09454912	      0.70939006	     -0.15151343	      1.10222803	      0.72050168	     -0.28755183	      1.09838857	      0.71494587	     -0.21953263	      0.92152233	      0.39749828	     -0.11929727	      0.94131188	      0.39963549	     -0.22464845	      1.06335779	      0.45653877	     -0.05002213	      1.02886857	      0.54018499	     -0.08603144	      0.98941706	      0.46443196	     -0.10817687	      0.72607897	      0.12728929	     -0.16359034	      0.74449179	      0.12120311	     -0.22059539	      0.76333124	      0.22936765	     -0.08221017	      0.75941480	      0.19737290	     -0.15833462	      0.96750604	      0.39909500	     -0.17457321	      0.74468071	      0.13198829	     -0.20875576	      0.77106648	      0.02522310	     -0.17298494	      1.22492431	      0.40419019	     -0.32571478	      1.20783574	      0.34922634	     -0.19765737	      1.32749950	      0.57700887	     -0.27376836	      1.24534832	      0.60880739	     -0.31453027	      1.23855121	      0.47207747	     -0.27835108	      1.29552190	      0.06457622	     -0.30998076	      1.30393858	      0.06425071	     -0.25464174	      1.28336449	      0.18982965	     -0.38318445	      1.27300633	      0.14663312	     -0.31180791	      1.24627122	      0.41756864	     -0.26801144	      1.30067563	      0.07235843	     -0.26204176	      1.40728175	      0.03832205	     -0.28765761	      1.14673531	      1.13182070	     -0.19517633	      1.14105796	      1.13612327	     -0.27005271	      1.03524615	      1.17633463	     -0.23576507	      1.12978860	      1.13132562	     -0.23309598	      1.16735856	      1.05302018	     -0.23805265	      1.10841300	      0.71125500	     -0.22502300	      1.09075300	      0.70406800	     -0.16174500	      1.10066400	      0.71377500	     -0.29132000	      0.96541400	      0.39262200	     -0.18721100	      1.24205400	      0.42065600	     -0.26801700	      0.73992400	      0.12544800	     -0.19875700	      1.29826100	      0.07005600	     -0.25886100	      1.17047300	      0.77211700	     -0.21607900	      1.16289300	      0.76469300	     -0.11698300	      1.17805200	      0.77954100	     -0.31517500	      1.01357600	      0.82351400	     -0.19487700	      1.01441300	      0.82367600	     -0.24977800	      0.95724600	      0.39146300	     -0.13283300	      1.25110700	      0.42075000	     -0.32176000	      0.98746500	      0.38959200	     -0.23109200	      1.23443700	      0.38900200	     -0.22655000	      0.72832500	      0.13373900	     -0.16407300	      1.30114100	      0.06955400	     -0.29574500	      0.74578700	      0.13156500	     -0.22322000	      1.30182900	      0.06851800	     -0.22896200	      1.03586600	      1.18358000	     -0.23571900	      1.14497600	      1.12952000	     -0.19502900	      1.14496000	      1.13223300	     -0.27212200	      1.13031400	      1.12912600	     -0.23503000	      1.16163500	      1.04802200	     -0.23548400	      1.09300400	      0.47108600	     -0.05686300	      1.31960500	      0.58783900	     -0.26133000	      1.04396900	      0.54808800	     -0.09628600	      1.24169400	      0.61096400	     -0.31338400	      1.02025300	      0.46619300	     -0.11626600	      1.26631500	      0.52759100	     -0.30545700	      0.77986900	      0.23755100	     -0.08589200	      1.31757000	      0.19313300	     -0.36784400	      0.76956000	      0.20387200	     -0.16190000	      1.29174200	      0.15164100	     -0.29926900	      0.77897800	      0.03708700	     -0.19277700	      1.40497500	      0.04031200	     -0.26251500	     45.24988879	     94.79928091	      8.38903868	      0.78600647	      0.00000000	     -0.20178987	    -71.40410158	    362.57152186	      9.41315731	      1.29470667	      0.00000000	     -0.26610452	      0.00000000	      0.17417819	      0.00000000	      0.00000000	     -0.06346509	      0.00000000	      1.10841274	      0.71125460	     -0.22502282	      1.09075284	      0.70406753	     -0.16174477	      1.10066354	      0.71377528	     -0.29131970	      0.96541446	      0.39262161	     -0.18721098	      1.24205363	      0.42065567	     -0.26801702	      0.73992407	      0.12544829	     -0.19875666	      1.29826081	      0.07005583	     -0.25886098	      1.17047274	      0.77211684	     -0.21607915	      1.16289330	      0.76469254	     -0.11698349	      1.17805219	      0.77954113	     -0.31517479	      1.01357627	      0.82351369	     -0.19487703	      1.01441288	      0.82367617	     -0.24977830	      0.95724624	      0.39146253	     -0.13283327	      1.25110722	      0.42075035	     -0.32175967	      0.98746514	      0.38959226	     -0.23109205	      1.23443687	      0.38900211	     -0.22654989	      0.72832531	      0.13373861	     -0.16407253	      1.30114067	      0.06955425	     -0.29574531	      0.74578696	      0.13156487	     -0.22322011	      1.30182874	      0.06851810	     -0.22896157	      1.03586638	      1.18357956	     -0.23571889	      1.14497566	      1.12952018	     -0.19502924	      1.14495981	      1.13223326	     -0.27212182	      1.13031352	      1.12912560	     -0.23503001	      1.16163468	      1.04802155	     -0.23548429	      1.09300387	      0.47108561	     -0.05686294	      1.31960452	      0.58783859	     -0.26133007	      1.04396868	      0.54808819	     -0.09628607	      1.24169445	      0.61096352	     -0.31338373	      1.02025306	      0.46619302	     -0.11626569	      1.26631474	      0.52759057	     -0.30545691	      0.77986854	      0.23755088	     -0.08589203	      1.31757021	      0.19313298	     -0.36784363	      0.76956016	      0.20387174	     -0.16190015	      1.29174197	      0.15164134	     -0.29926947	      0.77897811	      0.03708705	     -0.19277656	      1.40497530	      0.04031248	     -0.26251543
